<svg id="visual" viewBox="0 0 900 600" width="900" height="600" xmlns="http://www.w3.org/2000/svg"
  xmlns:xlink="http://www.w3.org/1999/xlink" version="1.1">
  <path
    d="M0 103L39 103L39 43L78 43L78 103L117 103L117 7L157 7L157 13L196 13L196 43L235 43L235 103L274 103L274 13L313 13L313 91L352 91L352 0L391 0L391 43L430 43L430 67L470 67L470 103L509 103L509 0L548 0L548 91L587 91L587 85L626 85L626 13L665 13L665 43L704 43L704 37L743 37L743 31L783 31L783 31L822 31L822 25L861 25L861 79L900 79L900 7L900 0L900 0L861 0L861 0L822 0L822 0L783 0L783 0L743 0L743 0L704 0L704 0L665 0L665 0L626 0L626 0L587 0L587 0L548 0L548 0L509 0L509 0L470 0L470 0L430 0L430 0L391 0L391 0L352 0L352 0L313 0L313 0L274 0L274 0L235 0L235 0L196 0L196 0L157 0L157 0L117 0L117 0L78 0L78 0L39 0L39 0L0 0Z"
    fill="#030303"></path>
  <path
    d="M0 151L39 151L39 55L78 55L78 139L117 139L117 205L157 205L157 91L196 91L196 181L235 181L235 235L274 235L274 187L313 187L313 121L352 121L352 289L391 289L391 169L430 169L430 199L470 199L470 241L509 241L509 67L548 67L548 103L587 103L587 241L626 241L626 271L665 271L665 49L704 49L704 73L743 73L743 241L783 241L783 43L822 43L822 169L861 169L861 85L900 85L900 103L900 5L900 77L861 77L861 23L822 23L822 29L783 29L783 29L743 29L743 35L704 35L704 41L665 41L665 11L626 11L626 83L587 83L587 89L548 89L548 0L509 0L509 101L470 101L470 65L430 65L430 41L391 41L391 0L352 0L352 89L313 89L313 11L274 11L274 101L235 101L235 41L196 41L196 11L157 11L157 5L117 5L117 101L78 101L78 41L39 41L39 101L0 101Z"
    fill="#1e0e11"></path>
  <path
    d="M0 343L39 343L39 217L78 217L78 379L117 379L117 265L157 265L157 289L196 289L196 301L235 301L235 283L274 283L274 331L313 331L313 223L352 223L352 301L391 301L391 283L430 283L430 223L470 223L470 283L509 283L509 217L548 217L548 319L587 319L587 289L626 289L626 295L665 295L665 271L704 271L704 283L743 283L743 283L783 283L783 229L822 229L822 223L861 223L861 247L900 247L900 271L900 101L900 83L861 83L861 167L822 167L822 41L783 41L783 239L743 239L743 71L704 71L704 47L665 47L665 269L626 269L626 239L587 239L587 101L548 101L548 65L509 65L509 239L470 239L470 197L430 197L430 167L391 167L391 287L352 287L352 119L313 119L313 185L274 185L274 233L235 233L235 179L196 179L196 89L157 89L157 203L117 203L117 137L78 137L78 53L39 53L39 149L0 149Z"
    fill="#30141a"></path>
  <path
    d="M0 397L39 397L39 235L78 235L78 379L117 379L117 325L157 325L157 343L196 343L196 343L235 343L235 337L274 337L274 355L313 355L313 277L352 277L352 343L391 343L391 319L430 319L430 235L470 235L470 349L509 349L509 283L548 283L548 355L587 355L587 319L626 319L626 361L665 361L665 289L704 289L704 355L743 355L743 313L783 313L783 259L822 259L822 283L861 283L861 295L900 295L900 343L900 269L900 245L861 245L861 221L822 221L822 227L783 227L783 281L743 281L743 281L704 281L704 269L665 269L665 293L626 293L626 287L587 287L587 317L548 317L548 215L509 215L509 281L470 281L470 221L430 221L430 281L391 281L391 299L352 299L352 221L313 221L313 329L274 329L274 281L235 281L235 299L196 299L196 287L157 287L157 263L117 263L117 377L78 377L78 215L39 215L39 341L0 341Z"
    fill="#441822"></path>
  <path
    d="M0 397L39 397L39 313L78 313L78 409L117 409L117 385L157 385L157 367L196 367L196 385L235 385L235 391L274 391L274 451L313 451L313 319L352 319L352 385L391 385L391 373L430 373L430 253L470 253L470 355L509 355L509 367L548 367L548 379L587 379L587 385L626 385L626 373L665 373L665 337L704 337L704 403L743 403L743 313L783 313L783 295L822 295L822 343L861 343L861 349L900 349L900 415L900 341L900 293L861 293L861 281L822 281L822 257L783 257L783 311L743 311L743 353L704 353L704 287L665 287L665 359L626 359L626 317L587 317L587 353L548 353L548 281L509 281L509 347L470 347L470 233L430 233L430 317L391 317L391 341L352 341L352 275L313 275L313 353L274 353L274 335L235 335L235 341L196 341L196 341L157 341L157 323L117 323L117 377L78 377L78 233L39 233L39 395L0 395Z"
    fill="#591a2b"></path>
  <path
    d="M0 463L39 463L39 313L78 313L78 421L117 421L117 403L157 403L157 397L196 397L196 403L235 403L235 427L274 427L274 475L313 475L313 373L352 373L352 427L391 427L391 409L430 409L430 289L470 289L470 367L509 367L509 373L548 373L548 397L587 397L587 397L626 397L626 385L665 385L665 343L704 343L704 439L743 439L743 343L783 343L783 319L822 319L822 349L861 349L861 367L900 367L900 451L900 413L900 347L861 347L861 341L822 341L822 293L783 293L783 311L743 311L743 401L704 401L704 335L665 335L665 371L626 371L626 383L587 383L587 377L548 377L548 365L509 365L509 353L470 353L470 251L430 251L430 371L391 371L391 383L352 383L352 317L313 317L313 449L274 449L274 389L235 389L235 383L196 383L196 365L157 365L157 383L117 383L117 407L78 407L78 311L39 311L39 395L0 395Z"
    fill="#6f1c34"></path>
  <path
    d="M0 487L39 487L39 343L78 343L78 469L117 469L117 409L157 409L157 415L196 415L196 451L235 451L235 475L274 475L274 475L313 475L313 403L352 403L352 457L391 457L391 457L430 457L430 337L470 337L470 391L509 391L509 397L548 397L548 403L587 403L587 427L626 427L626 445L665 445L665 397L704 397L704 481L743 481L743 397L783 397L783 349L822 349L822 397L861 397L861 373L900 373L900 451L900 449L900 365L861 365L861 347L822 347L822 317L783 317L783 341L743 341L743 437L704 437L704 341L665 341L665 383L626 383L626 395L587 395L587 395L548 395L548 371L509 371L509 365L470 365L470 287L430 287L430 407L391 407L391 425L352 425L352 371L313 371L313 473L274 473L274 425L235 425L235 401L196 401L196 395L157 395L157 401L117 401L117 419L78 419L78 311L39 311L39 461L0 461Z"
    fill="#851d3e"></path>
  <path
    d="M0 559L39 559L39 487L78 487L78 523L117 523L117 451L157 451L157 523L196 523L196 541L235 541L235 523L274 523L274 475L313 475L313 511L352 511L352 469L391 469L391 481L430 481L430 439L470 439L470 463L509 463L509 493L548 493L548 427L587 427L587 457L626 457L626 463L665 463L665 475L704 475L704 487L743 487L743 433L783 433L783 463L822 463L822 469L861 469L861 451L900 451L900 463L900 449L900 371L861 371L861 395L822 395L822 347L783 347L783 395L743 395L743 479L704 479L704 395L665 395L665 443L626 443L626 425L587 425L587 401L548 401L548 395L509 395L509 389L470 389L470 335L430 335L430 455L391 455L391 455L352 455L352 401L313 401L313 473L274 473L274 473L235 473L235 449L196 449L196 413L157 413L157 407L117 407L117 467L78 467L78 341L39 341L39 485L0 485Z"
    fill="#9d1d47"></path>
  <path
    d="M0 577L39 577L39 487L78 487L78 529L117 529L117 487L157 487L157 541L196 541L196 565L235 565L235 523L274 523L274 499L313 499L313 559L352 559L352 481L391 481L391 505L430 505L430 481L470 481L470 505L509 505L509 517L548 517L548 469L587 469L587 481L626 481L626 481L665 481L665 493L704 493L704 493L743 493L743 481L783 481L783 481L822 481L822 499L861 499L861 475L900 475L900 499L900 461L900 449L861 449L861 467L822 467L822 461L783 461L783 431L743 431L743 485L704 485L704 473L665 473L665 461L626 461L626 455L587 455L587 425L548 425L548 491L509 491L509 461L470 461L470 437L430 437L430 479L391 479L391 467L352 467L352 509L313 509L313 473L274 473L274 521L235 521L235 539L196 539L196 521L157 521L157 449L117 449L117 521L78 521L78 485L39 485L39 557L0 557Z"
    fill="#b41b51"></path>
  <path
    d="M0 577L39 577L39 523L78 523L78 559L117 559L117 523L157 523L157 547L196 547L196 595L235 595L235 553L274 553L274 517L313 517L313 589L352 589L352 511L391 511L391 547L430 547L430 511L470 511L470 541L509 541L509 535L548 535L548 481L587 481L587 529L626 529L626 493L665 493L665 505L704 505L704 499L743 499L743 517L783 517L783 493L822 493L822 529L861 529L861 517L900 517L900 499L900 497L900 473L861 473L861 497L822 497L822 479L783 479L783 479L743 479L743 491L704 491L704 491L665 491L665 479L626 479L626 479L587 479L587 467L548 467L548 515L509 515L509 503L470 503L470 479L430 479L430 503L391 503L391 479L352 479L352 557L313 557L313 497L274 497L274 521L235 521L235 563L196 563L196 539L157 539L157 485L117 485L117 527L78 527L78 485L39 485L39 575L0 575Z"
    fill="#cd185b"></path>
  <path
    d="M0 577L39 577L39 571L78 571L78 589L117 589L117 535L157 535L157 589L196 589L196 601L235 601L235 583L274 583L274 535L313 535L313 601L352 601L352 553L391 553L391 553L430 553L430 529L470 529L470 559L509 559L509 577L548 577L548 535L587 535L587 577L626 577L626 529L665 529L665 553L704 553L704 529L743 529L743 547L783 547L783 529L822 529L822 541L861 541L861 559L900 559L900 523L900 497L900 515L861 515L861 527L822 527L822 491L783 491L783 515L743 515L743 497L704 497L704 503L665 503L665 491L626 491L626 527L587 527L587 479L548 479L548 533L509 533L509 539L470 539L470 509L430 509L430 545L391 545L391 509L352 509L352 587L313 587L313 515L274 515L274 551L235 551L235 593L196 593L196 545L157 545L157 521L117 521L117 557L78 557L78 521L39 521L39 575L0 575Z"
    fill="#e61065"></path>
  <path
    d="M0 601L39 601L39 601L78 601L78 601L117 601L117 601L157 601L157 601L196 601L196 601L235 601L235 601L274 601L274 601L313 601L313 601L352 601L352 601L391 601L391 601L430 601L430 601L470 601L470 601L509 601L509 601L548 601L548 601L587 601L587 601L626 601L626 601L665 601L665 601L704 601L704 601L743 601L743 601L783 601L783 601L822 601L822 601L861 601L861 601L900 601L900 601L900 521L900 557L861 557L861 539L822 539L822 527L783 527L783 545L743 545L743 527L704 527L704 551L665 551L665 527L626 527L626 575L587 575L587 533L548 533L548 575L509 575L509 557L470 557L470 527L430 527L430 551L391 551L391 551L352 551L352 599L313 599L313 533L274 533L274 581L235 581L235 599L196 599L196 587L157 587L157 533L117 533L117 587L78 587L78 569L39 569L39 575L0 575Z"
    fill="#ff006f"></path>
</svg>
